<svg xmlns="http://www.w3.org/2000/svg" width="25" height="25" viewBox="0 0 25 25"><path fill="#000" fill-rule="evenodd" d="M 12.5 0 A 12.5 12.5 0 0 0 0 12.5 A 12.5 12.5 0 0 0 12.5 25 A 12.5 12.5 0 0 0 25 12.5 A 12.5 12.5 0 0 0 12.5 0 z M 16.630859 7 C 16.91399 7 17.197462 7.1076125 17.410156 7.3203125 L 18.681641 8.5898438 C 19.10698 9.0152438 19.10698 9.723037 18.681641 10.148438 L 17.714844 11.113281 L 17.34375 11.484375 L 10.900391 17.927734 L 6.6523438 19.34375 L 8.0683594 15.095703 L 14.527344 8.6679688 L 14.515625 8.65625 L 15.851562 7.3203125 C 16.064256 7.1076125 16.347728 7 16.630859 7 z M 16.630859 7.9921875 C 16.606695 7.9921875 16.583507 8.0043436 16.560547 8.0273438 L 15.578125 9.0078125 L 17.003906 10.412109 L 17.974609 9.4414062 C 18.020579 9.3959062 18.020579 9.342875 17.974609 9.296875 L 16.703125 8.0273438 C 16.680166 8.0043436 16.655024 7.9921875 16.630859 7.9921875 z M 14.882812 9.7265625 L 9.4238281 15.160156 L 10.839844 16.576172 L 16.294922 11.119141 L 14.882812 9.7265625 z M 8.828125 15.980469 L 8.234375 17.763672 L 10.019531 17.167969 L 8.828125 15.980469 z "/></svg>